<?xml version="1.0" standalone="no"?>
<!DOCTYPE svg PUBLIC "-//W3C//DTD SVG 20010904//EN"
 "http://www.w3.org/TR/2001/REC-SVG-20010904/DTD/svg10.dtd">
<svg version="1.0" xmlns="http://www.w3.org/2000/svg"
 width="612.000000pt" height="408.000000pt" viewBox="0 0 612.000000 408.000000"
 preserveAspectRatio="xMidYMid meet">

<g transform="translate(0.000000,408.000000) scale(0.100000,-0.100000)"
fill="#000000" stroke="none">
<path d="M2106 2583 c-7 -16 -17 -44 -21 -63 -4 -19 -11 -39 -15 -45 -5 -5
-24 -53 -44 -105 -20 -52 -41 -105 -46 -118 -6 -13 -10 -25 -10 -27 0 -3 270
-5 600 -5 502 0 600 2 600 14 0 7 16 52 35 100 33 82 95 258 95 270 0 3 -265
6 -590 6 l-589 0 -15 -27z"/>
<path d="M2305 2054 c-9 -20 -27 -66 -40 -102 -13 -37 -35 -94 -50 -127 -39
-87 -75 -197 -68 -208 3 -6 2 -7 -4 -4 -10 6 -46 -73 -59 -128 -4 -16 -10 -34
-14 -40 -9 -12 -74 -169 -85 -205 -4 -14 -25 -66 -46 -116 -22 -50 -39 -99
-39 -108 0 -15 20 -16 207 -14 l207 3 37 105 c20 58 44 123 53 145 8 22 26 69
39 105 14 36 35 90 47 120 12 30 28 75 36 100 8 25 32 88 54 140 21 53 41 107
44 121 2 13 12 42 21 64 35 81 64 168 59 177 -3 4 -90 8 -193 8 l-189 0 -17
-36z"/>
</g>
</svg>
